<svg width="223" height="210" viewBox="0 0 223 210" fill="none" xmlns="http://www.w3.org/2000/svg">
<g clip-path="url(#clip0_107_198)">
<path d="M120.422 95.9837L60.3422 137.411L3.81812 110.746L120.422 95.9837Z" fill="url(#paint0_linear_107_198)"/>
<path d="M134.763 101.602L155.065 182.095L97.3793 154.883L82.0293 147.644V147.639L125.858 109.374L134.763 101.602Z" fill="url(#paint1_linear_107_198)"/>
<path d="M219.169 27.9067L134.763 101.602L125.858 109.374L125.684 109.196L120.432 95.9837H120.422L219.169 27.9067Z" fill="#443988"/>
<path d="M125.684 109.196L125.858 109.374L82.0293 147.639V147.644L74.2552 174.232L59.7815 137.794L60.342 137.411L120.422 95.9837H120.432L125.684 109.196Z" fill="#443988"/>
<path d="M97.3792 154.883L74.2551 174.232L82.0292 147.644L97.3792 154.883Z" fill="#443988"/>
<path d="M219.169 27.9067L120.422 95.9838L3.81812 110.746L219.169 27.9067Z" fill="url(#paint2_linear_107_198)"/>
<path d="M219.179 27.9017L155.065 182.095L134.763 101.602L219.169 27.9067L219.174 27.9017H219.179Z" fill="url(#paint3_linear_107_198)"/>
<path d="M160.098 126.822C159.64 126.822 159.175 126.763 158.723 126.637C156.783 126.098 155.825 124.544 156.585 123.166L180.564 79.7026C181.324 78.3253 183.514 77.646 185.454 78.1849C187.394 78.724 188.352 80.2781 187.592 81.6554L163.613 125.119C163.03 126.176 161.606 126.822 160.098 126.822Z" fill="white"/>
<path d="M155.774 135.276C157.858 135.276 159.548 134.077 159.548 132.598C159.548 131.118 157.858 129.919 155.774 129.919C153.69 129.919 152 131.118 152 132.598C152 134.077 153.69 135.276 155.774 135.276Z" fill="white"/>
<path d="M221.861 25.3411C220.772 24.3309 219.149 24.0286 217.734 24.5729L2.37593 107.417C0.988279 107.951 0.0605627 109.199 0.00307043 110.61C-0.0544219 112.021 0.769199 113.333 2.10981 113.965L56.4126 139.582L70.6803 175.493C71.2408 176.904 72.6707 177.831 74.2579 177.831C74.3149 177.831 74.3724 177.83 74.4295 177.828C75.3276 177.79 76.1499 177.451 76.7897 176.916L76.7962 176.923L97.983 159.193L153.356 185.313C153.893 185.567 154.479 185.694 155.067 185.694C155.531 185.694 155.995 185.615 156.437 185.455C157.439 185.093 158.233 184.35 158.625 183.408L222.737 29.2155C223.294 27.8751 222.95 26.3514 221.861 25.3411ZM16.6136 112.758L106.058 101.432L59.9667 133.21L16.6136 112.758ZM32.9518 103.428L191.785 42.3286L118.96 92.5376L32.9518 103.428ZM168.169 67.5291L127.362 103.157L125.025 97.2749L168.169 67.5291ZM132.561 108.431L149.458 175.425L88.6701 146.751L132.561 108.431ZM138.998 102.811L209.536 41.2261L155.962 170.074L138.998 102.811ZM64.3753 139.089L118.62 101.69L121.304 108.445L79.4326 145.002C78.9113 145.457 78.5349 146.04 78.3464 146.686L73.7038 162.569L64.3753 139.089ZM81.3664 163.469L84.4789 152.822L90.6253 155.721L81.3664 163.469Z" fill="#333333"/>
<circle cx="203" cy="177" r="10" fill="#FBCE36"/>
<path fill-rule="evenodd" clip-rule="evenodd" d="M211 177C211 181.418 207.418 185 203 185C201.744 185 200.556 184.711 199.498 184.195C197.651 183.294 195.416 182.734 193.637 183.762V183.762C191.548 184.968 190.908 187.75 192.76 189.295C195.535 191.608 199.105 193 203 193C211.837 193 219 185.837 219 177C219 168.163 211.837 161 203 161C194.163 161 187 168.163 187 177V177C187 178.721 188.893 179.572 190.384 178.712L193.006 177.198C194.3 176.451 195.084 175.098 195.695 173.735C196.944 170.944 199.745 169 203 169C207.418 169 211 172.582 211 177Z" fill="#332D57"/>
<circle cx="70" cy="40" r="10" fill="#FBCE36"/>
<path fill-rule="evenodd" clip-rule="evenodd" d="M78 40C78 44.4183 74.4183 48 70 48C68.7442 48 67.556 47.7107 66.4984 47.195C64.6514 46.2944 62.4165 45.7343 60.6369 46.7617V46.7617C58.5476 47.968 57.9075 50.75 59.7605 52.2949C62.5351 54.6082 66.105 56 70 56C78.8366 56 86 48.8366 86 40C86 31.1634 78.8366 24 70 24C61.1634 24 54 31.1634 54 40V40C54 41.7213 55.8933 42.5722 57.384 41.7116L60.0061 40.1977C61.2998 39.4508 62.0842 38.098 62.6946 36.7346C63.9438 33.9441 66.7449 32 70 32C74.4183 32 78 35.5817 78 40Z" fill="#332D57"/>
<circle cx="194" cy="147" r="7" fill="#F7931B"/>
<circle cx="209" cy="140" r="3" fill="#FECD64"/>
</g>
<defs>
<linearGradient id="paint0_linear_107_198" x1="62.1201" y1="95.9837" x2="62.1201" y2="137.411" gradientUnits="userSpaceOnUse">
<stop stop-color="#CD7CFF"/>
<stop offset="1" stop-color="#FA9EFF"/>
</linearGradient>
<linearGradient id="paint1_linear_107_198" x1="118.547" y1="101.602" x2="118.547" y2="182.095" gradientUnits="userSpaceOnUse">
<stop stop-color="#CD7CFF"/>
<stop offset="1" stop-color="#FA9EFF"/>
</linearGradient>
<linearGradient id="paint2_linear_107_198" x1="111.494" y1="27.9067" x2="111.494" y2="110.746" gradientUnits="userSpaceOnUse">
<stop stop-color="#8345FF"/>
<stop offset="1" stop-color="#FA9EFF"/>
</linearGradient>
<linearGradient id="paint3_linear_107_198" x1="176.971" y1="27.9017" x2="176.971" y2="182.095" gradientUnits="userSpaceOnUse">
<stop stop-color="#8345FF"/>
<stop offset="1" stop-color="#FA9EFF"/>
</linearGradient>
<clipPath id="clip0_107_198">
<rect width="223" height="210" fill="white"/>
</clipPath>
</defs>
</svg>
