<svg width="200" height="200" viewBox="0 0 200 200" fill="none" xmlns="http://www.w3.org/2000/svg">
<path d="M32.8333 158.333V158.833H33.3333H158.333C160.411 158.833 162.403 159.659 163.872 161.128C165.341 162.597 166.167 164.589 166.167 166.667C166.167 168.744 165.341 170.737 163.872 172.206C162.403 173.675 160.411 174.5 158.333 174.5H95.8333H33.3333C29.0456 174.5 24.9336 172.797 21.9017 169.765C18.8699 166.733 17.1666 162.621 17.1666 158.333V66.6667C17.1666 64.5891 17.9919 62.5967 19.461 61.1277C20.93 59.6586 22.9224 58.8333 25 58.8333C27.0775 58.8333 29.0699 59.6586 30.539 61.1277C32.008 62.5967 32.8333 64.5891 32.8333 66.6667V158.333ZM50.5 125V41.6667C50.5 37.379 52.2032 33.2669 55.2351 30.2351C58.2669 27.2033 62.379 25.5 66.6666 25.5H166.667C170.954 25.5 175.066 27.2033 178.098 30.2351C181.13 33.2669 182.833 37.379 182.833 41.6667V125C182.833 129.288 181.13 133.4 178.098 136.432C175.066 139.463 170.954 141.167 166.667 141.167H66.6666C62.379 141.167 58.2669 139.463 55.2351 136.432C52.2032 133.4 50.5 129.288 50.5 125Z" fill="#332D57" stroke="black"/>
<path d="M52.4167 96.25L76.75 71.8333C77.5287 71.061 78.4522 70.4499 79.4675 70.0352C80.4828 69.6205 81.57 69.4103 82.6667 69.4167C83.7634 69.4103 84.8506 69.6205 85.8659 70.0352C86.8812 70.4499 87.8047 71.061 88.5834 71.8333L106.333 89.5833L129.417 66.6667C130.195 65.8943 131.119 65.2833 132.134 64.8686C133.149 64.4539 134.237 64.2437 135.333 64.25C136.499 64.1866 137.666 64.3689 138.757 64.7853C139.848 65.2016 140.839 65.8426 141.667 66.6667L181.333 106.333C182.106 107.112 182.717 108.035 183.131 109.051C183.546 110.066 183.756 111.153 183.75 112.25V125C183.75 129.42 181.994 133.66 178.868 136.785C175.743 139.911 171.504 141.667 167.083 141.667H66.6667C62.2464 141.667 58.0072 139.911 54.8816 136.785C51.756 133.66 50 129.42 50 125V102.167C49.9937 101.07 50.2039 99.9828 50.6186 98.9674C51.0333 97.9521 51.6443 97.0287 52.4167 96.25Z" fill="url(#paint0_linear_115_198)"/>
<circle cx="22" cy="25" r="10" fill="#FBCE36"/>
<path fill-rule="evenodd" clip-rule="evenodd" d="M30 25C30 29.4183 26.4183 33 22 33C20.7442 33 19.556 32.7107 18.4984 32.195C16.6514 31.2944 14.4165 30.7343 12.6369 31.7617V31.7617C10.5476 32.968 9.90751 35.75 11.7605 37.2949C14.5351 39.6082 18.105 41 22 41C30.8366 41 38 33.8366 38 25C38 16.1634 30.8366 9 22 9C13.1634 9 6 16.1634 6 25V25C6 26.7213 7.89334 27.5722 9.38401 26.7116L12.0061 25.1977C13.2998 24.4508 14.0842 23.098 14.6946 21.7346C15.9438 18.9441 18.7449 17 22 17C26.4183 17 30 20.5817 30 25Z" fill="#332D57"/>
<circle cx="99" cy="57" r="7" fill="#F7931B"/>
<circle cx="114" cy="50" r="3" fill="#FECD64"/>
<circle cx="183" cy="163" r="8" fill="#B8DEFF" stroke="#332D57" stroke-width="8"/>
<path d="M163.575 49.4796V104.539" stroke="white" stroke-width="7" stroke-linecap="round"/>
<circle cx="164" cy="123" r="5" fill="white"/>
<defs>
<linearGradient id="paint0_linear_115_198" x1="116.875" y1="64.2377" x2="116.875" y2="141.667" gradientUnits="userSpaceOnUse">
<stop stop-color="#8345FF"/>
<stop offset="1" stop-color="#FA9EFF"/>
</linearGradient>
</defs>
</svg>
